<?xml version="1.0" encoding="UTF-8"?>
<svg width="20px" height="20px" viewBox="0 0 20 20" version="1.1" xmlns="http://www.w3.org/2000/svg" xmlns:xlink="http://www.w3.org/1999/xlink">
    <title>accessibility</title>
    <g id="Accessibility-Toggle" stroke="none" stroke-width="1" fill="none" fill-rule="evenodd">
        <g transform="translate(-181.000000, -352.000000)" id="Inactive">
            <g transform="translate(169.000000, 340.000000)">
                <g id="accessibility" transform="translate(12.000000, 12.000000)">
                    <polygon id="Path" points="0 0 20 0 20 20 0 20"></polygon>
                    <path d="M17.3647192,4.81948126 C18.4532216,4.45181144 19.4485827,6.12566556 18.3142436,6.97271376 L12.3080347,8.71472308 L12.3080347,12.2274859 L14.7062597,18.4387032 C15.1730604,20.0193395 13.008514,20.5498068 12.437165,19.19697 L12.4270018,19.1692449 C12.3287573,18.9012359 11.5182407,16.6901616 9.995452,12.5360221 L7.37531386,19.4284989 C6.42917944,20.6177445 4.91104407,19.7865335 5.23358745,18.4387032 L7.59559387,12.2274859 L7.59559387,8.71472308 L1.79598942,7.09457754 C0.503498067,6.53039233 1.41167475,4.24418453 2.84665333,4.92873042 L8.09701019,6.42601804 L11.7821212,6.42601804 L17.3647192,4.81948126 Z M9.967088,0 C11.2902407,0 12.3627115,1.07282399 12.3627115,2.39610892 C12.3627115,3.71930558 11.2902847,4.79177643 9.967088,4.79177643 C8.64380317,4.79177643 7.57062603,3.71930558 7.57062603,2.39606478 C7.57062603,1.07282399 8.64380317,0 9.967088,0 Z" id="Shape" fill="#FFFFFF" fill-rule="nonzero"></path>
                </g>
            </g>
        </g>
    </g>
</svg>