<svg viewBox="0 0 1024 1024" xmlns="http://www.w3.org/2000/svg">
<path fill-rule="evenodd" clip-rule="evenodd" d="M538.691 287.634C538.691 302.343 526.767 314.267 512.057 314.267C497.348 314.267 485.424 302.343 485.424 287.634C485.424 272.924 497.348 261 512.057 261C526.767 261 538.691 272.924 538.691 287.634ZM581.691 287.634C581.691 326.091 550.515 357.267 512.057 357.267C473.6 357.267 442.424 326.091 442.424 287.634C442.424 249.176 473.6 218 512.057 218C550.515 218 581.691 249.176 581.691 287.634ZM312.344 372.191C315.64 360.783 327.559 354.207 338.967 357.503L513.778 408.004L685.148 358.497C696.556 355.201 708.475 361.777 711.771 373.185C715.066 384.593 708.49 396.512 697.083 399.807L533.558 447.048V541.325L634.851 749.754C640.041 760.434 635.591 773.299 624.911 778.489C614.231 783.68 601.366 779.229 596.176 768.55L511.816 594.963L427.939 767.556C422.749 778.235 409.884 782.685 399.204 777.495C388.524 772.305 384.074 759.44 389.264 748.76L490.557 540.331V446.054L327.033 398.813C315.625 395.518 309.049 383.598 312.344 372.191Z" fill="white"/>
<path fill-rule="evenodd" clip-rule="evenodd" d="M512 847C697.015 847 847 697.015 847 512C847 326.985 697.015 177 512 177C326.985 177 177 326.985 177 512C177 697.015 326.985 847 512 847ZM512 890C720.764 890 890 720.764 890 512C890 303.236 720.764 134 512 134C303.236 134 134 303.236 134 512C134 720.764 303.236 890 512 890Z" fill="white"/>
</svg>
